<?xml version="1.0" standalone="no"?><!DOCTYPE svg PUBLIC "-//W3C//DTD SVG 1.1//EN" "http://www.w3.org/Graphics/SVG/1.1/DTD/svg11.dtd"><svg t="1677479122488" class="icon" viewBox="0 0 1024 1024" version="1.1" xmlns="http://www.w3.org/2000/svg" p-id="2777" xmlns:xlink="http://www.w3.org/1999/xlink" width="128" height="128"><path d="M66.56 105.8048a38.92736 38.92736 0 0 1 38.92224-38.92736h813.03552c21.504 0 38.92736 17.42848 38.92736 38.92736a38.92736 38.92736 0 0 1-38.92736 38.93248H105.48224A38.92736 38.92736 0 0 1 66.56 105.8048zM512.08704 215.57248a38.9376 38.9376 0 0 1 38.93248 38.93248v663.69024a38.93248 38.93248 0 0 1-77.85984 0V254.49984a38.93248 38.93248 0 0 1 38.92736-38.92736z" fill="#55af7b" p-id="2778"></path><path d="M484.57216 227.22048a38.93248 38.93248 0 0 1 55.04 0l292.12672 292.13696a38.92224 38.92224 0 0 1 0 55.04512 38.912 38.912 0 0 1-55.04 0L484.57216 282.27072a38.912 38.912 0 0 1 0-55.05024z" fill="#55af7b" p-id="2779"></path><path d="M539.61216 227.22048a38.93248 38.93248 0 0 1 0 55.05536l-292.13696 292.12672a38.90176 38.90176 0 0 1-55.04512 0 38.912 38.912 0 0 1 0-55.04512l292.14208-292.13696a38.93248 38.93248 0 0 1 55.04 0z" fill="#55af7b" p-id="2780"></path></svg>