<?xml version="1.0" standalone="no"?><!DOCTYPE svg PUBLIC "-//W3C//DTD SVG 1.1//EN" "http://www.w3.org/Graphics/SVG/1.1/DTD/svg11.dtd"><svg t="1666597466259" class="icon" viewBox="0 0 1024 1024" version="1.1" xmlns="http://www.w3.org/2000/svg" p-id="1966" xmlns:xlink="http://www.w3.org/1999/xlink" width="200" height="200"><path d="M188.8 623.2L69.4 742.6a16 16 0 0 0 6.2 26.5l103.6 34.5a16.1 16.1 0 0 1 10 10l34.6 103.6a16 16 0 0 0 26.5 6.3l142.8-142.6a384.5 384.5 0 0 1-204.3-157.7zM954.6 742.6l-120-120a384.6 384.6 0 0 1-203.8 158.2l142.8 142.8a16 16 0 0 0 26.4-6.3l34.6-103.6a16.1 16.1 0 0 1 10-10l103.6-34.5a16 16 0 0 0 6.4-26.6zM831.8 415.7a320 320 0 1 0-320 320 320 320 0 0 0 320-320z m-134.7-30.8l-81.5 80a10.8 10.8 0 0 0-2.9 9.1l19.2 113a10 10 0 0 1-14.9 10.8l-100-53.2a10 10 0 0 0-10 0l-100 53.2a10 10 0 0 1-14.9-10.8l19.2-113a10 10 0 0 0-2.9-9.1l-81.5-80a10 10 0 0 1 5.8-17.5l112.4-16.5a10 10 0 0 0 7.7-5.7l50-102.6a10 10 0 0 1 18.4 0l50 102.6a10 10 0 0 0 7.8 5.7l112.4 16.5a10 10 0 0 1 5.7 17.5z" fill="#ffffff" p-id="1967"></path></svg>