<?xml version="1.0" standalone="no"?><!DOCTYPE svg PUBLIC "-//W3C//DTD SVG 1.1//EN" "http://www.w3.org/Graphics/SVG/1.1/DTD/svg11.dtd"><svg t="1668410938527" class="icon" viewBox="0 0 1024 1024" version="1.1" xmlns="http://www.w3.org/2000/svg" p-id="5497" xmlns:xlink="http://www.w3.org/1999/xlink" width="200" height="200"><path d="M512 102.4a409.6 409.6 0 1 1 0 819.2 409.6 409.6 0 0 1 0-819.2z m25.6 571.648v169.7792l1.5872-0.1024 3.9936-6.3488a705.792 705.792 0 0 0 72.2944-154.112 537.8048 537.8048 0 0 0-77.824-9.216z m-118.784 8.0896l-7.5776 1.4336a705.7408 705.7408 0 0 0 72.192 153.8048l2.9696 4.6592v-167.8336c-22.528 1.2288-45.056 3.84-67.584 7.936z m-57.4976 13.568l-18.6368 5.7344c-26.368 8.6016-52.736 19.2512-79.1552 31.8464a332.1344 332.1344 0 0 0 157.5424 98.9184 729.6 729.6 0 0 1-59.7504-136.4992z m304.0768-0.7168l-4.864 15.104c-13.824 40.5504-32 80.9472-54.4256 121.1904a332.9024 332.9024 0 0 0 156.416-100.1984l-15.616-7.0144c-27.2896-11.776-54.4256-21.4528-81.5104-29.0816zM333.2608 537.6H180.224a330.8544 330.8544 0 0 0 51.712 154.1632c38.6048-19.2 77.2608-34.304 116.0192-45.568a586.5984 586.5984 0 0 1-14.6432-108.5952z m510.5664 0h-150.528a591.616 591.616 0 0 1-14.4384 107.9808c38.1952 10.752 76.4928 25.2416 114.8928 43.52a329.984 329.984 0 0 0 50.0736-151.552zM486.4 537.6H384.512c1.4336 32.2048 5.7856 64.3584 13.1072 96.512a579.584 579.584 0 0 1 88.7808-11.1616V537.6z m155.648 0H537.6v85.1968c30.464 1.2288 60.928 4.8128 91.392 10.8544 7.3216-32 11.6224-64 13.056-96.0512zM231.8848 332.4416l-3.4304 5.2224A330.8032 330.8032 0 0 0 180.224 486.4h153.2928c1.7408-36.0448 6.8608-72.1408 15.3088-108.288a693.9136 693.9136 0 0 1-116.8896-45.7216z m166.7072 58.0096l-2.2016 9.3696c-6.2464 28.9792-10.1376 57.856-11.6224 86.6304L486.4 486.4V401.408a588.9536 588.9536 0 0 1-87.808-10.9568z m229.5808 0.4608l-16.7936 3.0208c-24.6272 4.096-49.2032 6.656-73.7792 7.6288v84.7872h104.192a552.7552 552.7552 0 0 0-13.6192-95.4368z m165.7344-55.8592l-7.2704 3.4816c-36.2496 16.896-72.5504 30.3616-108.7488 40.4992 8.3968 35.7888 13.4656 71.5776 15.2064 107.3664h150.7328a330.8544 330.8544 0 0 0-49.92-151.3472zM537.6 180.1728v170.1376c25.6-1.1264 51.2-4.096 76.9024-8.96-18.6368-57.6-46.4384-115.6096-83.5584-174.0288l7.9872 12.9536-1.3312-0.1024z m-51.2 2.1504l9.3184-15.0016c-37.0688 58.2656-64.8192 116.1216-83.456 173.568 24.7296 4.864 49.4592 7.8848 74.1376 9.216V182.272z m118.784 10.0864l4.9664 9.1136c22.7328 42.752 40.8576 85.4528 54.272 128.1024a665.2928 665.2928 0 0 0 98.304-36.4544 332.8 332.8 0 0 0-157.5424-100.7616z m-183.296-0.8192l-2.048 0.512A332.9024 332.9024 0 0 0 263.3728 290.816c33.024 15.872 66.048 28.5696 99.0208 38.144 14.4896-45.7728 34.304-91.5456 59.4944-137.3184z" p-id="5498" fill="#023a84"></path></svg>