<?xml version="1.0" standalone="no"?><!DOCTYPE svg PUBLIC "-//W3C//DTD SVG 1.1//EN" "http://www.w3.org/Graphics/SVG/1.1/DTD/svg11.dtd"><svg t="1668410817077" class="icon" viewBox="0 0 1024 1024" version="1.1" xmlns="http://www.w3.org/2000/svg" p-id="3800" xmlns:xlink="http://www.w3.org/1999/xlink" width="200" height="200"><path d="M485.76 229.76a252.16 252.16 0 0 1 180.48 74.88 256 256 0 0 1 0 361.6 256 256 0 0 1-361.6 0 256 256 0 0 1 0-361.6 256 256 0 0 1 181.12-74.88m0-128a384 384 0 1 0 271.36 112 384 384 0 0 0-271.36-112z" fill="#023a84" p-id="3801"></path><path d="M711.68 621.44l-90.24 90.24 271.36 271.36 90.24-90.24-271.36-271.36z" fill="#023a84" p-id="3802"></path></svg>