<?xml version="1.0" standalone="no"?><!DOCTYPE svg PUBLIC "-//W3C//DTD SVG 1.1//EN" "http://www.w3.org/Graphics/SVG/1.1/DTD/svg11.dtd"><svg t="1663221953934" class="icon" viewBox="0 0 1024 1024" version="1.1" xmlns="http://www.w3.org/2000/svg" p-id="33879" xmlns:xlink="http://www.w3.org/1999/xlink" width="200" height="200"><path d="M273.8176 136.15616l0.44032 0.69632c19.31776 31.2064 45.7472 115.62496 62.45888 181.94944L279.3984 376.1152l-32.86528 32.86528 16.59904 43.4176c3.14368 8.22272 79.4624 202.53184 293.02272 300.65152l45.33248 20.82816 35.2768-35.2768 51.2-51.2c0.28672-0.28672 0.52736-0.512 0.71168-0.68096 0.53248-0.06656 1.38752-0.13824 2.62656-0.13824 2.14528 0 4.67968 0.2048 7.51616 0.60928 31.872 4.55168 140.90752 29.4144 166.67136 38.00064 13.45536 4.48512 16.47616 6.79424 17.90464 21.04832 3.17952 31.76448-11.69408 66.67776-40.80128 95.78496-31.42656 31.42656-65.92 46.05952-108.54912 46.05952-22.8608 0-48.32256-4.27008-75.68384-12.68736-134.98368-41.53344-269.97248-142.44864-401.21344-299.93984C184.14592 487.86944 156.72832 403.2 146.58048 347.5968c-12.36992-67.78368-3.36896-112.82432-0.47616-120.34048 2.56512-6.67136 27.7248-65.84832 119.82336-89.40544 1.39264-0.36352 4.88448-1.2544 7.88992-1.69472m2.85696-71.93088c-10.67008 0-20.57728 2.1504-28.50816 4.17792-110.08 28.16-156.16 99.84-168.96 133.12-18.6112 48.37888-30.72 235.52 122.88 419.84s302.08 281.6 435.2 322.56c36.26496 11.15648 68.34176 15.85664 96.76288 15.85664 75.91424 0 125.70624-33.53088 159.23712-67.05664 46.08-46.08 66.56-102.4 61.44-153.6s-35.84-71.68-66.56-81.92-143.36-35.84-179.2-40.96a124.98432 124.98432 0 0 0-17.65376-1.3312c-25.27744 0-41.39008 9.17504-54.02624 21.8112l-51.2 51.2c-189.44-87.04-256-261.12-256-261.12l61.44-61.44c15.36-15.36 20.48-40.96 15.36-61.44s-38.4-151.04-71.68-204.8c-17.21344-27.80672-39.13728-34.90304-58.53184-34.89792z" fill="#4bb13f" p-id="33880"></path></svg>