<?xml version="1.0" standalone="no"?><!DOCTYPE svg PUBLIC "-//W3C//DTD SVG 1.1//EN" "http://www.w3.org/Graphics/SVG/1.1/DTD/svg11.dtd"><svg t="1668666986084" class="icon" viewBox="0 0 1024 1024" version="1.1" xmlns="http://www.w3.org/2000/svg" p-id="9275" width="32" height="32" xmlns:xlink="http://www.w3.org/1999/xlink"><path d="M205.96 121.815c38.729-22.36 79.32-33.807 116.202-31.69 42.58 2.442 78.23 22.883 99.435 59.613 28.837 49.946 44.84 89.161 47.61 119.978 1.99 22.16-1.772 43.148-9.446 62.254-3.638 9.058-8.285 17.772-12.733 24.213l-0.417 0.597-0.172 0.242-0.143 0.262c-4.859 8.855-11.146 16.746-21.153 27.616l-1.194 1.293-1.812 1.945-9.752 10.355-1.554 1.668a396.776 396.776 0 0 0-2.792 3.04l-0.437 0.482-1.182 1.314c-15.108 16.906-20.7 27.678-19.887 36.657l0.044 0.426 0.237 0.947c8.21 32.58 22.671 67.463 43.495 104.58l0.826 1.467 0.81 1.431c21.301 37.49 44.344 67.875 69 91.257l1.08 1.019 0.234 0.154c7.597 4.941 16.718 5.41 38.802 1.496l2.086-0.376 2.265-0.42 15.177-2.921 3.41-0.644a626.6 626.6 0 0 1 5.45-0.995l2.981-0.521 1.461-0.249c10.626-1.79 20.281-3.036 30.035-3.76l1.464-0.105 0.458-0.028c32.424-1.816 62.863 7.522 90.013 27.356 25.409 18.561 50.783 50.966 77.736 97.652 22.774 39.444 23.141 81.058 2.813 119.023-16.79 31.357-46.838 58.815-86.45 81.685-41.25 23.816-88.954 28.091-137.378 15.748-40.316-10.277-79.734-31.921-110.857-59.53l-1.794-1.593c-5.194-4.583-31.878-28.067-43.409-38.524l-1.113-1.011-2.413-2.212c-27.432-25.23-51.119-49.764-75.197-78.939-30.05-36.409-58.909-78.147-87.396-127.488-27.571-47.755-48.425-91.808-64.34-134.491-12.617-33.835-21.53-64.738-30.082-101.568l-0.675-2.938c-1.725-7.688-11.032-50.053-14.545-64.541l-0.11-0.453-1.045-4.24c-23.564-97.78 6.12-190.21 86.355-236.533z m112.077 40.191c-21.693-1.245-48.75 6.386-76.076 22.163-25.52 14.734-42.724 36.76-51.514 64.752-8.626 27.464-8.856 60.078-0.538 93.813l0.6 2.425c2.105 8.61 6.14 26.56 9.525 41.763l5.584 25.159 0.53 2.299c7.892 33.968 15.975 61.972 27.377 92.552 14.501 38.89 33.64 79.32 59.231 123.647 26.512 45.918 53.096 84.366 80.573 117.658 21.841 26.464 43.307 48.695 68.493 71.853l2.34 2.143c4.42 4.025 11.978 10.754 19.637 17.54l1.998 1.769 24.563 21.696c22.656 19.855 51.533 35.61 80.007 42.869 31.25 7.965 59.795 5.407 83.594-8.333 28.948-16.713 49.366-35.372 58.976-53.319 8.664-16.18 8.53-31.328-1.693-49.035l-1.34-2.31c-21.831-37.46-41.176-61.998-56.514-73.203-13.7-10.007-27.555-14.346-42.811-13.644l-0.523 0.026-0.727 0.053c-7.013 0.519-14.19 1.426-22.302 2.767l-1.224 0.204-2.412 0.414c-2.47 0.432-5.018 0.898-7.97 1.457l-1.512 0.287-14.024 2.704-4.084 0.761-1.956 0.354c-17.405 3.114-29.547 4.308-42.58 3.548-19.67-1.147-37.459-7.237-53.568-19.246a36 36 0 0 1-2.906-2.413c-31.45-29.04-59.884-66.114-85.447-111.106-25.39-44.687-43.138-87.508-53.113-128.543a36 36 0 0 1-0.52-2.536c-3.444-20.486 0.162-40.168 9.396-58.918 6.563-13.326 15.31-25.255 27.426-38.831l1.248-1.391 1.373-1.515a520.014 520.014 0 0 1 4.445-4.813l2.245-2.394 8.13-8.627 1.58-1.704c6.744-7.308 10.327-11.788 11.787-14.472l0.08-0.15 0.492-0.97a36 36 0 0 1 3.28-5.181l0.47-0.606 0.14-0.172 0.348-0.54c0.085-0.133 0.174-0.277 0.267-0.429l0.292-0.482c1.432-2.405 2.91-5.355 4.239-8.665 3.68-9.163 5.443-18.995 4.546-28.974-1.607-17.888-14.224-48.806-38.251-90.422-8.627-14.941-22.04-22.632-41.207-23.732z m383.253-31.927C845.069 201.369 938 348.119 938 511.5c0 9.697-0.325 19.357-0.972 28.97-1.336 19.837-18.5 34.836-38.337 33.5-19.837-1.335-34.836-18.499-33.5-38.336 0.538-8.004 0.809-16.051 0.809-24.134 0-135.76-77.198-257.665-196.694-316.915-17.813-8.833-25.094-30.433-16.261-48.245 8.832-17.813 30.432-25.094 48.245-16.261z m-63.796 103.685C745.837 282.591 817 390.564 817 511.5c0 19.882-16.118 36-36 36-19.683 0-35.677-15.797-35.995-35.405L745 511.5c0-91.435-53.253-173.15-134.614-210.961l-2.474-1.133c-18.127-8.169-26.199-29.485-18.03-47.612 8.17-18.126 29.486-26.199 47.612-18.03z m-16.338 124.914C670.224 393.616 700 450.091 700 511.5c0 19.882-16.118 36-36 36s-36-16.118-36-36c0-37.49-17.948-71.906-47.7-93.52l-0.905-0.65c-16.196-11.533-19.977-34.011-8.445-50.207 11.532-16.196 34.01-19.977 50.206-8.445z" p-id="9276" fill="#000000"></path></svg>