<?xml version="1.0" standalone="no"?><!DOCTYPE svg PUBLIC "-//W3C//DTD SVG 1.1//EN" "http://www.w3.org/Graphics/SVG/1.1/DTD/svg11.dtd"><svg t="1666597482289" class="icon" viewBox="0 0 1024 1024" version="1.1" xmlns="http://www.w3.org/2000/svg" p-id="2507" xmlns:xlink="http://www.w3.org/1999/xlink" width="200" height="200"><path d="M512 377.6c-224 0-422.4 153.6-499.2 384C0 800 6.4 832 32 864 51.2 896 89.6 896 128 896l774.4 0c38.4 0 70.4 0 96-32 25.6-32 32-64 19.2-108.8C940.8 524.8 736 377.6 512 377.6zM947.2 825.6c-12.8 12.8-25.6 6.4-44.8 6.4L128 832c-19.2 0-32 12.8-44.8-6.4C64 806.4 64 800 70.4 774.4 140.8 569.6 320 435.2 512 435.2s377.6 128 441.6 332.8C966.4 793.6 960 806.4 947.2 825.6z" p-id="2508" fill="#ffffff"></path><path d="M512 473.6c-96 0-179.2 83.2-179.2 179.2S416 832 512 832s179.2-83.2 179.2-179.2S614.4 473.6 512 473.6zM512 774.4c-64 0-121.6-51.2-121.6-121.6S448 537.6 512 537.6c64 0 121.6 51.2 121.6 121.6S582.4 774.4 512 774.4z" p-id="2509" fill="#ffffff"></path><path d="M998.4 230.4c-64-57.6-134.4-102.4-211.2-128-172.8-70.4-364.8-70.4-537.6 0C172.8 128 96 172.8 32 230.4 19.2 243.2 0 262.4 0 281.6l0 64C0 390.4 51.2 448 89.6 448l128 0C236.8 448 256 428.8 268.8 416c12.8-12.8 19.2-44.8 19.2-64 0-19.2 0-57.6 0-76.8 0-6.4 0-12.8 6.4-12.8 140.8-57.6 300.8-57.6 441.6 0 6.4 0 6.4 6.4 6.4 12.8 0 25.6 0 64 0 76.8 0 19.2 6.4 51.2 19.2 64C780.8 428.8 800 448 819.2 448l128 0C992 448 1024 390.4 1024 345.6l0-64C1024 262.4 1011.2 243.2 998.4 230.4zM960 345.6C960 358.4 953.6 384 947.2 384l-128 0c-6.4 0-6.4-12.8-12.8-12.8 0 0-6.4-12.8-6.4-19.2 0-12.8 0-51.2 0-76.8 0-32-19.2-57.6-44.8-70.4-76.8-32-160-51.2-243.2-51.2-83.2 0-166.4 19.2-243.2 51.2C249.6 217.6 230.4 243.2 230.4 275.2c0 19.2 0 64 0 76.8 0 6.4 0 19.2-6.4 19.2 0 0-6.4 12.8-12.8 12.8l-128 0C83.2 384 64 358.4 64 345.6l0-64c0-6.4 6.4-6.4 12.8-12.8 57.6-51.2 128-89.6 198.4-121.6 153.6-64 332.8-64 492.8 0C832 179.2 896 224 960 275.2c0 0 0 6.4 0 12.8L960 345.6z" p-id="2510" fill="#ffffff"></path></svg>