<?xml version="1.0" standalone="no"?><!DOCTYPE svg PUBLIC "-//W3C//DTD SVG 1.1//EN" "http://www.w3.org/Graphics/SVG/1.1/DTD/svg11.dtd"><svg t="1664355207811" class="icon" viewBox="0 0 1024 1024" version="1.1" xmlns="http://www.w3.org/2000/svg" p-id="5871" xmlns:xlink="http://www.w3.org/1999/xlink" width="200" height="200"><path d="M512.4 259.81c-5.876 0-11.6 0.544-17.393 0.885v105.22c5.826-0.525 11.43-1.749 17.393-1.749 105.664 0 191.318 85.654 191.318 191.318 0 18.208-3.362 35.483-8.119 52.177h107.599c3.025-16.968 4.876-34.343 4.876-52.177 0-163.292-132.381-295.674-295.674-295.674z m0-208.71c-5.876 0-11.567 0.68-17.393 0.884V156.34c5.81-0.254 11.517-0.882 17.393-0.882 220.922 0 400.03 179.088 400.03 400.028 0 17.733-1.546 35.058-3.789 52.177h105.444a509.579 509.579 0 0 0 2.7-52.177c0-278.57-225.815-504.384-504.385-504.384z m183.386 710.142c-57.92-22.15-112.78-50.65-176.372 8.714-39.251 36.635-67.633 32.628-93.297 18.987-25.648-13.639-183.66-174.96-205.231-227.734-21.57-52.773-9.918-59.906 0-75.905 9.904-16.018 78.709-53.384 37.316-170.8-41.409-117.418-73.919-205.841-242.561 0-17.494 21.35 0 113.867 0 113.867s118.912 388.701 522.423 550.346c62.64 25.088 204.108-14.641 261.212-113.867 27.99-48.629-12.603-68.858-103.49-103.608z" p-id="5872" fill="#FFFFFF"></path></svg>