<?xml version="1.0" standalone="no"?><!DOCTYPE svg PUBLIC "-//W3C//DTD SVG 1.1//EN" "http://www.w3.org/Graphics/SVG/1.1/DTD/svg11.dtd"><svg t="1663222075995" class="icon" viewBox="0 0 1024 1024" version="1.1" xmlns="http://www.w3.org/2000/svg" p-id="38250" xmlns:xlink="http://www.w3.org/1999/xlink" width="200" height="200"><path d="M511.997 878.073c-78.945-95.529-266.199-348.492-266.199-472.165 0-146.75 119.414-266.199 266.199-266.199 146.792 0 266.206 119.449 266.206 266.199 0 123.33-186.535 375.608-266.206 472.201m0-814.457c-188.698 0-342.255 153.523-342.255 342.256 0 176.379 258.707 490.915 289.056 527.193a68.823 68.823 0 0 0 53.24 25.974h0.116a68.473 68.473 0 0 0 52.897-25.782c29.582-35.367 289.208-350.704 289.208-527.384 0-188.735-153.563-342.257-342.262-342.257" p-id="38251" fill="#000000"></path><path d="M511.997 491.885c-41.941 0-76.056-34.114-76.056-76.062 0-41.943 34.114-76.056 76.056-76.056 41.949 0 76.063 34.113 76.063 76.056 0 41.948-34.114 76.062-76.063 76.062m0-228.174c-83.889 0-152.111 68.223-152.111 152.113 0 83.895 68.223 152.118 152.111 152.118 83.896 0 152.119-68.223 152.119-152.118 0-83.891-68.223-152.113-152.119-152.113" p-id="38252" fill="#000000"></path></svg>