<?xml version="1.0" standalone="no"?><!DOCTYPE svg PUBLIC "-//W3C//DTD SVG 1.1//EN" "http://www.w3.org/Graphics/SVG/1.1/DTD/svg11.dtd"><svg t="1663222031360" class="icon" viewBox="0 0 1024 1024" version="1.1" xmlns="http://www.w3.org/2000/svg" p-id="35675" xmlns:xlink="http://www.w3.org/1999/xlink" width="200" height="200"><path d="M636.013714 556.544q7.460571 0 55.734857 25.161143t51.126857 30.281143q1.170286 2.852571 1.170286 8.557714 0 18.870857-9.728 43.446857-9.142857 22.308571-40.594286 37.449143t-58.294857 15.140571q-32.548571 0-108.544-35.401143-56.027429-25.746286-97.133714-67.437714t-84.553143-105.691429q-41.179429-61.147429-40.594286-110.884571l0-4.534857q1.682286-52.004571 42.276571-90.258286 13.677714-12.580571 29.696-12.580571 3.437714 0 10.313143 0.877714t10.825143 0.877714q10.825143 0 15.140571 3.730286t8.850286 15.725714q4.534857 11.410286 18.870857 50.322286t14.262857 42.861714q0 11.995429-19.748571 32.841143t-19.748571 26.550857q0 4.022857 2.852571 8.557714 19.456 41.691429 58.294857 78.262857 32.036571 30.281143 86.308571 57.709714 6.875429 4.022857 12.580571 4.022857 8.557714 0 30.866286-27.721143t29.696-27.721143zM520.009143 859.428571q72.557714 0 139.117714-28.598857t114.541714-76.580571 76.580571-114.541714 28.598857-139.117714-28.598857-139.117714-76.580571-114.541714-114.541714-76.580571-139.117714-28.598857-139.117714 28.598857-114.541714 76.580571-76.580571 114.541714-28.598857 139.117714q0 116.004571 68.534857 210.285714l-45.129143 133.12 138.313143-44.032q90.258286 59.465143 197.12 59.465143zM520.009143 69.705143q87.405714 0 167.131429 34.304t137.435429 92.013714 92.013714 137.435429 34.304 167.131429-34.304 167.131429-92.013714 137.435429-137.435429 92.013714-167.131429 34.304q-111.396571 0-208.603429-53.686857l-238.299429 76.580571 77.677714-231.424q-61.732571-101.741714-61.732571-222.281143 0-87.405714 34.304-167.131429t92.013714-137.435429 137.435429-92.013714 167.131429-34.304z" p-id="35676" fill="#000000"></path></svg>