<?xml version="1.0" standalone="no"?><!DOCTYPE svg PUBLIC "-//W3C//DTD SVG 1.1//EN" "http://www.w3.org/Graphics/SVG/1.1/DTD/svg11.dtd"><svg t="1665456011592" class="icon" viewBox="0 0 1024 1024" version="1.1" xmlns="http://www.w3.org/2000/svg" p-id="4297" xmlns:xlink="http://www.w3.org/1999/xlink" width="200" height="200"><path d="M868.457458 318.130547c0-8.976442-0.147356-17.893532-0.524956-26.698059 35.894512-28.640294 67.025533-64.454988 91.661629-105.455797-32.94739 15.838733-68.317968 26.447349-105.498776 30.856775 37.948287-24.961508 67.047022-64.925708 80.787978-112.876814-35.518958 23.046902-74.803683 39.573297-116.601648 48.112788-33.480532-40.777729-81.246419-66.722634-134.059252-67.690682-101.420901-1.794879-183.633321 89.927125-183.633321 204.874087 0 16.302291 1.589195 32.18605 4.764514 47.461965C352.621083 326.190107 217.277582 241.123686 126.753869 112.843044c-15.793708 30.738072-24.865317 66.647933-24.865317 105.151875 0 72.77856 32.41527 137.477095 81.69565 175.647439-30.153764-1.447978-58.418504-11.214413-83.20298-27.237341 0 0.880043 0 1.765203 0 2.653433 0 101.730962 63.331397 186.972369 147.347906 206.888977-15.408945 4.690836-31.661094 7.136537-48.363498 7.04137-11.865235-0.088004-23.344684-1.440815-34.529421-4.042059 23.350824 83.382059 91.203188 144.289244 171.533748 146.297994-62.866816 55.827493-142.0656 89.137133-228.055043 88.915076-14.817474 0-29.482475-1.078565-43.828204-3.013637 81.310887 59.69559 177.813778 94.453209 281.567817 94.453209C683.766039 905.719106 868.457458 591.098499 868.457458 318.130547L868.457458 318.130547z" p-id="4298" fill="#999"></path></svg>