<?xml version="1.0" standalone="no"?><!DOCTYPE svg PUBLIC "-//W3C//DTD SVG 1.1//EN" "http://www.w3.org/Graphics/SVG/1.1/DTD/svg11.dtd"><svg t="1665468750482" class="icon" viewBox="0 0 1024 1024" version="1.1" xmlns="http://www.w3.org/2000/svg" p-id="6921" xmlns:xlink="http://www.w3.org/1999/xlink" width="200" height="200"><path d="M4.565481 794.078447c0 125.094066 101.525278 226.551806 226.749304 226.551806 125.21891 0 226.749304-101.456716 226.749304-226.551806L458.064089 567.496965 231.314785 567.496965C106.090758 567.496965 4.565481 668.922982 4.565481 794.078447z" p-id="6922" fill="#0B2572"></path><path d="M794.41358 567.496965 567.600831 567.496965l0 226.581482c0 125.094066 101.525278 226.551806 226.811726 226.551806 125.224026 0 226.749304-101.456716 226.749304-226.551806C1021.162884 668.922982 919.637606 567.496965 794.41358 567.496965z" p-id="6923" fill="#0B2572"></path><path d="M231.314785 4.03285c-125.224026 0-226.749304 101.462856-226.749304 226.550783 0 125.155465 101.525278 226.581482 226.749304 226.581482l226.749304 0L458.064089 230.583632C458.064089 105.45989 356.533694 4.03285 231.314785 4.03285z" p-id="6924" fill="#0B2572"></path><path d="M1021.162884 230.583632c0-125.086903-101.525278-226.550783-226.749304-226.550783-125.287471 0-226.811726 101.42704-226.811726 226.550783l0 226.581482L794.41358 457.165114C919.637606 457.165114 1021.162884 355.739097 1021.162884 230.583632z" p-id="6925" fill="#0B2572"></path></svg>