<?xml version="1.0" standalone="no"?><!DOCTYPE svg PUBLIC "-//W3C//DTD SVG 1.1//EN" "http://www.w3.org/Graphics/SVG/1.1/DTD/svg11.dtd"><svg t="1658804928119" class="icon" viewBox="0 0 1024 1024" version="1.1" xmlns="http://www.w3.org/2000/svg" p-id="6364" xmlns:xlink="http://www.w3.org/1999/xlink" width="200" height="200"><defs><style type="text/css"></style></defs><path d="M822.272 523.776H202.24c-13.824 0-25.088-11.264-25.088-25.088s11.264-25.088 25.088-25.088h620.032c13.824 0 25.088 11.264 25.088 25.088 0.512 13.824-10.752 25.088-25.088 25.088z" fill="#EA8400" p-id="6365"></path><path d="M484.352 817.664V197.632c0-13.824 11.264-25.088 25.088-25.088s25.088 11.264 25.088 25.088v620.032c0 13.824-11.264 25.088-25.088 25.088s-25.088-11.264-25.088-25.088z" fill="#EA8400" p-id="6366"></path><path d="M509.952 867.84c-198.656 0-360.448-161.792-360.448-360.448s161.792-360.448 360.448-360.448S870.4 308.736 870.4 507.392s-161.792 360.448-360.448 360.448z m0-671.744c-171.52 0-311.296 139.776-311.296 311.296s139.776 311.296 311.296 311.296 311.296-139.776 311.296-311.296-139.776-311.296-311.296-311.296z" fill="#EA8400" p-id="6367"></path><path d="M456.704 856.064c-325.632-400.384-0.512-696.32 2.56-699.392l32.768 36.864-16.384-18.432 16.384 18.432c-12.288 10.752-292.864 268.288 2.56 631.808l-37.888 30.72zM571.904 856.064l-37.888-30.72c295.424-363.008 14.848-620.544 2.56-631.808l32.768-36.864c3.072 3.072 328.192 299.52 2.56 699.392z" fill="#EA8400" p-id="6368"></path></svg>