<?xml version="1.0" standalone="no"?><!DOCTYPE svg PUBLIC "-//W3C//DTD SVG 1.1//EN" "http://www.w3.org/Graphics/SVG/1.1/DTD/svg11.dtd"><svg t="1666602809747" class="icon" viewBox="0 0 1024 1024" version="1.1" xmlns="http://www.w3.org/2000/svg" p-id="7311" xmlns:xlink="http://www.w3.org/1999/xlink" width="200" height="200"><path d="M461.816 79.279c30.333-20.364 69.97-20.373 100.311-0.021l384.19 257.69c9.256 6.208 13.947 16.672 13.216 27.044 0.108 1.548 0.096 3.1-0.034 4.64 0.33 1.778 0.501 3.61 0.501 5.483v495.903C960 919.714 919.706 960 870 960H154c-49.706 0-90-40.286-90-89.982V374.115c0-2.663 0.347-5.245 0.999-7.704-0.004-0.803 0.025-1.608 0.086-2.412-0.804-10.432 3.883-20.985 13.191-27.234z m70.259 519.057c-11.417-10.283-28.76-10.278-40.171 0.012L157.358 900.01h709.674zM124 425.237v424.071L381.796 616.85 124 425.237z m776 0.224L642.268 616.842 900 848.964V425.461zM528.7 129.074a30.005 30.005 0 0 0-33.437 0.007L143.678 365.114l283.558 210.762 24.483-22.075c33.891-30.56 85.223-30.88 119.48-0.952l1.034 0.916 24.56 22.121 283.833-210.763z" fill="#333333" p-id="7312"></path></svg>