<?xml version="1.0" standalone="no"?><!DOCTYPE svg PUBLIC "-//W3C//DTD SVG 1.1//EN" "http://www.w3.org/Graphics/SVG/1.1/DTD/svg11.dtd"><svg t="1663221977626" class="icon" viewBox="0 0 1024 1024" version="1.1" xmlns="http://www.w3.org/2000/svg" p-id="34713" xmlns:xlink="http://www.w3.org/1999/xlink" width="200" height="200"><path d="M156.4672 761.2928c-6.5024 0-13.056-2.048-18.6368-6.2976-13.4656-10.2912-16.0768-29.5936-5.7344-43.0592l196.5568-257.1264c10.2912-13.4656 29.5936-16.0768 43.0592-5.7344 13.4656 10.2912 16.0768 29.5936 5.7344 43.0592l-196.5568 257.1264a30.65856 30.65856 0 0 1-24.4224 12.032zM878.3872 763.5456c-9.216 0-18.3808-4.1472-24.4224-12.032l-195.7888-255.6416c-10.2912-13.4656-7.7824-32.768 5.7344-43.0592 13.4656-10.2912 32.768-7.7824 43.0592 5.7344l195.7888 255.6416c10.2912 13.4656 7.7824 32.768-5.7344 43.0592a30.98624 30.98624 0 0 1-18.6368 6.2976z" fill="#000000" p-id="34714"></path><path d="M517.9904 575.6928c-26.88 0-53.76-7.7824-77.2096-23.296L118.1184 338.7392a30.75584 30.75584 0 0 1-8.6528-42.5984 30.75584 30.75584 0 0 1 42.5984-8.6528l322.6112 213.6576c26.2656 17.3568 60.16 17.408 86.4256 0.1024l326.9632-215.2448a30.75584 30.75584 0 0 1 42.5472 8.7552c9.3184 14.1824 5.4272 33.2288-8.7552 42.5472l-326.9632 215.2448a139.5968 139.5968 0 0 1-76.9024 23.1424z" fill="#000000" p-id="34715"></path><path d="M777.0112 850.1248H257.8432c-92.3648 0-167.5264-75.1616-167.5264-167.5264V320.3584c0-92.3648 75.1616-167.5264 167.5264-167.5264h519.1168c92.3648 0 167.5264 75.1616 167.5264 167.5264v362.24c0.0512 92.3648-75.1104 167.5264-167.4752 167.5264zM257.8432 214.272c-58.5216 0-106.0864 47.616-106.0864 106.0864v362.24c0 58.5216 47.616 106.0864 106.0864 106.0864h519.1168c58.5216 0 106.0864-47.616 106.0864-106.0864V320.3584c0-58.5216-47.616-106.0864-106.0864-106.0864H257.8432z" fill="#000000" p-id="34716"></path></svg>