<?xml version="1.0" standalone="no"?><!DOCTYPE svg PUBLIC "-//W3C//DTD SVG 1.1//EN" "http://www.w3.org/Graphics/SVG/1.1/DTD/svg11.dtd"><svg t="1666258792657" class="icon" viewBox="0 0 1024 1024" version="1.1" xmlns="http://www.w3.org/2000/svg" p-id="3486" xmlns:xlink="http://www.w3.org/1999/xlink" width="200" height="200"><path d="M791.272727 0a186.181818 186.181818 0 0 1 186.181818 186.181818v651.636364a186.181818 186.181818 0 0 1-186.181818 186.181818H232.727273a186.181818 186.181818 0 0 1-186.181818-186.181818V186.181818a186.181818 186.181818 0 0 1 186.181818-186.181818z m-139.636363 512H325.818182a46.545455 46.545455 0 0 0 0 93.090909h325.818182a46.545455 46.545455 0 0 0 0-93.090909z m-93.090909-232.727273H325.818182a46.545455 46.545455 0 1 0 0 93.090909h232.727273a46.545455 46.545455 0 0 0 0-93.090909z" fill="#2E3659" p-id="3487"></path></svg>