<?xml version="1.0" standalone="no"?><!DOCTYPE svg PUBLIC "-//W3C//DTD SVG 1.1//EN" "http://www.w3.org/Graphics/SVG/1.1/DTD/svg11.dtd"><svg t="1664501920339" class="icon" viewBox="0 0 1024 1024" version="1.1" xmlns="http://www.w3.org/2000/svg" p-id="2757" xmlns:xlink="http://www.w3.org/1999/xlink" width="200" height="200"><path d="M746.581333 613.632c-12.842667-6.4-75.392-36.992-87.04-41.216-11.648-4.309333-20.181333-6.4-28.714666 6.4-8.405333 12.586667-32.896 41.130667-40.277334 49.578667-7.466667 8.32-14.890667 8.96-27.562666 3.2-12.8-6.4-53.888-19.84-102.528-63.36-37.888-33.92-63.317333-75.52-70.826667-88.32-7.424-12.8-0.810667-19.84 5.546667-26.24 5.802667-5.76 12.842667-14.72 19.242666-22.314667 6.229333-7.722667 8.277333-12.842667 12.672-21.162667 4.266667-8.96 2.090667-16-1.066666-22.357333-3.2-6.4-28.672-69.12-39.338667-94.122667-10.24-24.917333-20.778667-21.76-28.672-21.76-7.338667-0.64-15.829333-0.64-24.362667-0.64-8.533333 0-22.314667 3.157333-34.005333 15.317334-11.648 12.8-44.586667 43.52-44.586667 105.6s45.653333 122.24 52.010667 131.2c6.357333 8.32 89.813333 136.32 217.6 191.36 30.464 12.8 54.186667 20.48 72.704 26.837333 30.464 9.685333 58.24 8.32 80.213333 5.162667 24.490667-3.882667 75.392-30.762667 86.016-60.842667 10.88-30.08 10.88-55.04 7.68-60.8-3.157333-5.76-11.52-8.96-24.32-14.72m-232.362666 317.568h-0.682667c-75.52 0-150.357333-20.48-215.68-58.88l-15.36-9.130667-160 41.6 42.88-155.52-10.197333-16a421.077333 421.077333 0 0 1-64.682667-224.426666c0-232.32 190.08-421.76 424.192-421.76a420.906667 420.906667 0 0 1 299.562667 124.16 417.621333 417.621333 0 0 1 124.117333 298.24c-0.170667 232.277333-190.293333 421.76-423.893333 421.76M875.52 147.157333C778.24 53.12 650.24 0 513.92 0 233.088 0 4.437333 227.584 4.309333 507.434667c0 89.429333 23.424 176.64 68.053334 253.653333L0 1024l270.293333-70.485333a514.645333 514.645333 0 0 0 243.626667 61.738666h0.256c280.96 0 509.696-227.669333 509.824-507.562666 0-135.509333-52.906667-263.04-149.12-358.869334" fill="#FFFFFF" p-id="2758"></path></svg>