<?xml version="1.0" standalone="no"?><!DOCTYPE svg PUBLIC "-//W3C//DTD SVG 1.1//EN" "http://www.w3.org/Graphics/SVG/1.1/DTD/svg11.dtd"><svg t="1664355233123" class="icon" viewBox="0 0 1024 1024" version="1.1" xmlns="http://www.w3.org/2000/svg" p-id="9471" xmlns:xlink="http://www.w3.org/1999/xlink" width="200" height="200"><path d="M512 239.9l301.7 298.9c22.2 22 58.2 22 80.4 0l20.1-19.9c22.2-22 22.2-57.7 0-79.7L573.3 101.5l-1-1-20.2-19.9c-22.1-22-58.2-22-80.4 0l-20.1 19.9-0.4 0.4-341.5 338.3c-22.2 22-22.2 57.7 0 79.7l20.1 19.9c22.2 22 58.3 22 80.5 0L512 239.9z m0 404.7l301.7 298.9c22.2 22 58.2 22 80.4 0l20.1-19.9c22.2-22 22.2-57.7 0-79.7L573.3 506.1l-1-1-20.2-19.9c-22.1-22-58.2-22-80.4 0l-20.1 19.9-0.4 0.4-341.5 338.4c-22.2 22-22.2 57.7 0 79.7l20.1 19.9c22.2 22 58.3 22 80.5 0L512 644.6z" fill="#FFFFFF" p-id="9472"></path></svg>