<?xml version="1.0" standalone="no"?><!DOCTYPE svg PUBLIC "-//W3C//DTD SVG 1.1//EN" "http://www.w3.org/Graphics/SVG/1.1/DTD/svg11.dtd"><svg t="1665455992331" class="icon" viewBox="0 0 1024 1024" version="1.1" xmlns="http://www.w3.org/2000/svg" p-id="3323" xmlns:xlink="http://www.w3.org/1999/xlink" width="200" height="200"><path d="M42.044235 350.750118h207.088941v621.808941H42.044235V350.750118zM146.853647 51.440941C76.559059 51.440941 30.117647 97.882353 30.117647 158.780235c0 59.572706 44.574118 107.279059 114.206118 107.279059h1.264941c72.161882 0 117.338353-47.706353 116.736-107.279059C261.662118 97.882353 217.750588 51.440941 146.853647 51.440941z m609.219765 284.852706c-110.170353 0-159.201882 60.355765-186.368 102.942118V350.750118H363.279059s2.529882 58.368 0 621.808941h206.426353v-347.01553c0-18.793412 1.927529-37.044706 6.866823-50.778353 15.119059-37.044706 48.911059-75.294118 106.134589-75.294117 74.571294 0 104.688941 57.103059 104.688941 140.528941v332.559059H993.882353v-356.412235c0-190.765176-101.677176-279.853176-237.808941-279.853177z" p-id="3324" fill="#999"></path></svg>