<?xml version="1.0" standalone="no"?><!DOCTYPE svg PUBLIC "-//W3C//DTD SVG 1.1//EN" "http://www.w3.org/Graphics/SVG/1.1/DTD/svg11.dtd"><svg t="1669007453194" class="icon" viewBox="0 0 1034 1024" version="1.1" xmlns="http://www.w3.org/2000/svg" p-id="9276" xmlns:xlink="http://www.w3.org/1999/xlink" width="201.953125" height="200"><path d="M971.14112 950.15424H74.61888l64.55296-387.8656h106.66496v55.40864H186.27072l-46.26944 277.0432h765.75232l-46.26432-277.0432h-59.56608v-55.40864h106.66496l64.55296 387.8656z m-448.26112-498.68288c-61.20448 0-110.81728-49.6128-110.81728-110.81728s49.6128-110.81728 110.81728-110.81728c61.19936 0 110.8224 49.6128 110.8224 110.81728s-49.62304 110.81728-110.8224 110.81728z m0-166.23104c-30.60224 0-55.40864 24.81152-55.40864 55.40864s24.81152 55.40864 55.40864 55.40864 55.40864-24.81152 55.40864-55.40864-24.8064-55.40864-55.40864-55.40864z" p-id="9277" fill="#023A84"></path><path d="M522.88 834.06848L279.35744 465.32096a252.09344 252.09344 0 0 1-33.52064-124.672c0-153.00608 124.03712-277.0432 277.0432-277.0432s277.0432 124.03712 277.0432 277.0432a250.72128 250.72128 0 0 1-32.6912 124.672c-16.34304 25.21088-221.63456 333.84448-221.63456 333.84448l-22.71744 34.90304z m0-715.05408c-122.40896 0-221.63968 99.23072-221.63968 221.63968a193.90976 193.90976 0 0 0 25.49248 95.85664l196.1472 297.27232c53.74464-83.11296 184.23296-278.98368 196.98176-298.65472a193.88416 193.88416 0 0 0 24.6528-94.47424c0-122.40896-99.23072-221.63968-221.63456-221.63968z" p-id="9278" fill="#023A84"></path></svg>