<?xml version="1.0" standalone="no"?><!DOCTYPE svg PUBLIC "-//W3C//DTD SVG 1.1//EN" "http://www.w3.org/Graphics/SVG/1.1/DTD/svg11.dtd"><svg t="1672278245471" class="icon" viewBox="0 0 1024 1024" version="1.1" xmlns="http://www.w3.org/2000/svg" p-id="8064" xmlns:xlink="http://www.w3.org/1999/xlink" width="48" height="48"><path d="M857.1 583.2c-16.5-16.5-43.2-16.5-59.7 0L520.5 860.1 226.6 604.3c-16.5-16.5-43.2-16.5-59.7 0s-16.5 43.2 0 59.7l325.8 283.6c16.5 16.5 43.2 16.5 59.7 0l304.7-304.7c16.5-16.4 16.5-43.2 0-59.7zM504.6 358.4c4.1 4.1 10.8 4.1 14.9 0L795.9 82c4.1-4.1 4.1-10.8 0-14.9s-10.8-4.1-14.9 0L512.1 336 243.2 67.1c-4.1-4.1-10.8-4.1-14.9 0s-4.1 10.8 0 14.9l276.3 276.4zM497 532.9c8.2 8.2 21.4 8.2 29.6 0l316.9-317c8.2-8.2 8.2-21.4 0-29.6-8.2-8.2-21.4-8.2-29.6 0L511.8 488.5 209.7 186.3c-8.2-8.2-21.4-8.2-29.6 0-8.2 8.2-8.2 21.4 0 29.6l316.9 317z m-7.2 193.9c12.4 12.4 32.4 12.4 44.8 0l313.5-313.4c12.4-12.4 12.4-32.4 0-44.8-12.4-12.4-32.4-12.4-44.8 0L512.2 659.7l-291-291.1c-12.4-12.4-32.4-12.4-44.8 0-12.4 12.4-12.4 32.4 0 44.8l313.4 313.4z" fill="#e77a1c" p-id="8065"></path></svg>