<?xml version="1.0" standalone="no"?><!DOCTYPE svg PUBLIC "-//W3C//DTD SVG 1.1//EN" "http://www.w3.org/Graphics/SVG/1.1/DTD/svg11.dtd"><svg t="1666597444973" class="icon" viewBox="0 0 1024 1024" version="1.1" xmlns="http://www.w3.org/2000/svg" p-id="1274" xmlns:xlink="http://www.w3.org/1999/xlink" width="200" height="200"><path d="M167.936 755.2l61.44 59.904c14.336 16.384 31.232 28.672 49.664 35.84l-46.08 46.08h-1.024v1.024c-26.112 28.672-72.192 29.184-102.912-1.024v-1.024h-1.024c-28.672-26.112-29.184-72.192 1.024-102.912l38.912-37.888z m179.2-464.896c36.864 0 74.24 14.336 103.936 44.032l13.824 18.432-28.672 30.208 166.4 166.4c14.848 7.168 22.016 25.6 22.016 44.032 0 29.696-26.112 55.296-55.296 55.296-11.264 0-18.944-3.072-30.208-7.168v7.168c0 29.696-26.112 55.296-55.296 55.296-11.264 0-17.92-3.072-28.672-7.168v7.168c0 29.696-26.112 55.296-55.296 55.296-11.264 0-22.528-3.072-30.208-7.168-2.048 5.632-4.608 10.752-8.192 14.848-3.584 4.608-7.168 8.192-11.776 11.776-9.216 6.656-21.504 10.24-32.256 10.24-18.432 0-32.768-7.168-44.032-22.016l-133.12-133.12c-51.712-51.712-51.712-141.312 0-193.024l102.912-102.912c33.28-32.256 70.656-47.616 103.936-47.616z m388.096-184.832c5.12 0 8.704 3.072 13.824 3.584l-114.688 114.688-24.064 25.6 24.064 26.624 99.328 106.496 26.624 28.672 26.624-27.648 121.344-121.344c1.536 10.24 8.192 17.408 8.192 28.672 0 101.888-82.944 184.832-184.832 184.832-13.312 0-30.208-3.072-48.64-7.168l-19.456-3.584-13.824 13.824-4.608 5.632-101.888-101.888 25.6-25.6-10.24-12.8-2.56-8.192c-3.072-11.776-5.632-32.768-5.632-46.08 0-101.376 82.944-184.32 184.832-184.32z m0-74.24c-132.096 0-241.664 100.352-256.512 228.864-39.424-28.16-85.504-44.032-131.584-44.032-55.296 0-111.104 21.504-147.968 62.464l-103.936 103.936c-81.408 81.408-81.408 214.528 0 299.52l20.992 20.992-35.84 34.816-3.584 3.584c-57.856 57.856-58.368 153.088 1.024 207.872 57.856 57.344 152.064 58.368 206.848 0 0.512-0.512 1.024-0.512 1.024-1.024l112.128-112.128c2.56-2.048 5.632-3.584 8.192-5.632h3.584c44.544 0 85.504-22.016 107.52-55.296 33.28-7.168 63.488-26.112 81.92-55.296 59.392-11.264 102.912-62.976 102.912-125.952 0-17.408-4.096-33.792-11.776-49.664 13.312 2.56 26.112 5.632 41.472 5.632 142.336 0 259.072-116.736 259.072-259.072 0-41.984-8.704-82.432-31.232-119.296l-25.6-39.424-32.256 32.256-139.776 139.776-49.664-53.248 137.728-137.728 39.424-39.424-50.688-20.992c-30.208-12.288-64.512-21.504-103.424-21.504z" p-id="1275" fill="#ffffff"></path></svg>