<?xml version="1.0" standalone="no"?><!DOCTYPE svg PUBLIC "-//W3C//DTD SVG 1.1//EN" "http://www.w3.org/Graphics/SVG/1.1/DTD/svg11.dtd"><svg t="1666597451329" class="icon" viewBox="0 0 1024 1024" version="1.1" xmlns="http://www.w3.org/2000/svg" p-id="1460" xmlns:xlink="http://www.w3.org/1999/xlink" width="200" height="200"><path d="M458.2 138.4c-31.7-45.3-81.4-72.3-136.7-74.3-47.4-1.7-80.5 25-92.9 70.3-20.7 75.4 21.2 136 125.5 181.8 76.9 22.7 169.7-9.4 187.5-44.5-5.3-49.7-56.3-94.7-83.4-133.3z m14.7 109.1c-15.4 31.8-52.3 32.9-110.8 3.4-58.5-29.6-80.1-60.3-64.8-92.1 25.5-52.7 122.2 32 142.7 54 3.3 3.5 35.9 28.3 32.9 34.7z" fill="#ffffff" p-id="1461"></path><path d="M819.1 133.7c-14-49.1-52.4-72.7-102.5-68.4-27.7 2.3-63.1 9.2-85.2 25.9-32.5 24.6-54.9 57.9-79.5 89.5-9.6 12.3-61.6 68.4-51.5 87.6 18.1 34.3 112.6 65.9 190.9 43.6 106.3-44.7 148.9-104.2 127.8-178.2zM683.3 247.9c-59.6 29-97.2 27.9-112.9-3.3-2.7-5.5 23.2-24.2 25.7-26.5 22.6-21 124.8-117 153.1-60.5 15.7 31.2-6.3 61.3-65.9 90.3zM546.7 960h294.5c57.2 0 103.6-46.4 103.6-103.5V549.9H546.7V960zM477.3 307.3c0-2 0.2-3.9 0.5-5.7h-295c-57.2 0-103.6 46.4-103.6 103.6v75.4h398.1V307.3z" fill="#ffffff" p-id="1462"></path><path d="M546.7 480.6h398.1v-75.4c0-57.2-46.4-103.6-103.6-103.6H546.1c0.3 1.8 0.5 3.7 0.5 5.7v173.3h0.1zM79.2 549.9v306.5c0 57.2 46.4 103.5 103.6 103.5h294.5v-410H79.2z" fill="#ffffff" p-id="1463"></path></svg>