<?xml version="1.0" standalone="no"?><!DOCTYPE svg PUBLIC "-//W3C//DTD SVG 1.1//EN" "http://www.w3.org/Graphics/SVG/1.1/DTD/svg11.dtd"><svg t="1667291890444" class="icon" viewBox="0 0 1024 1024" version="1.1" xmlns="http://www.w3.org/2000/svg" p-id="15488" xmlns:xlink="http://www.w3.org/1999/xlink" width="200" height="200"><path d="M837.818182 0H186.181818C83.781818 0 0 83.781818 0 186.181818v651.636364c0 102.4 83.781818 186.181818 186.181818 186.181818h651.636364c102.4 0 186.181818-83.781818 186.181818-186.181818V186.181818c0-102.4-83.781818-186.181818-186.181818-186.181818z m93.090909 837.818182c0 51.2-41.890909 93.090909-93.090909 93.090909H186.181818c-51.2 0-93.090909-41.890909-93.090909-93.090909V186.181818c0-51.2 41.890909-93.090909 93.090909-93.090909h651.636364c51.2 0 93.090909 41.890909 93.090909 93.090909v651.636364z" fill="#333333" p-id="15489"></path><path d="M512 302.545455c-116.363636 0-209.454545 93.090909-209.454545 209.454545s93.090909 209.454545 209.454545 209.454545 209.454545-93.090909 209.454545-209.454545-93.090909-209.454545-209.454545-209.454545z m0 325.818181c-65.163636 0-116.363636-51.2-116.363636-116.363636s51.2-116.363636 116.363636-116.363636 116.363636 51.2 116.363636 116.363636-51.2 116.363636-116.363636 116.363636z" fill="#333333" p-id="15490"></path><path d="M768 256m-69.818182 0a69.818182 69.818182 0 1 0 139.636364 0 69.818182 69.818182 0 1 0-139.636364 0Z" fill="#333333" p-id="15491"></path></svg>