<?xml version="1.0" standalone="no"?><!DOCTYPE svg PUBLIC "-//W3C//DTD SVG 1.1//EN" "http://www.w3.org/Graphics/SVG/1.1/DTD/svg11.dtd"><svg t="1684287286071" class="icon" viewBox="0 0 1024 1024" version="1.1" xmlns="http://www.w3.org/2000/svg" p-id="5969" width="64" height="64" xmlns:xlink="http://www.w3.org/1999/xlink"><path d="M90.1771833 543.66328584a27.30292734 27.30292734 0 0 1-19.91696748-8.73251543 30.97078418 30.97078418 0 0 1 0-42.11504121L453.33525518 87.78379062c31.34259492-33.1614501 80.39139346-34.43766328 121.98389062-3.23575312l3.63771035 3.23575313 375.37756348 396.86216309a30.99088213 30.99088213 0 0 1 0 42.11504208 27.13209521 27.13209521 0 0 1-39.83393585 0l-373.48836503-394.92272109c-7.84821006-5.42641904-31.49332823-19.25373867-47.81278125-2.00978526L110.09415078 534.93077041a27.33307383 27.33307383 0 0 1-19.91696748 8.73251543zM871.49108867 299.35384121c-15.55573448 0-28.1369874-13.33492208-28.13698828-29.78501132V136.99337276c0.05024443 0.36176133-0.69337617-0.40195723-2.08012676-0.41200577H706.44755761c-15.56578388 0-28.1369874-13.33492208-28.13698827-29.78501133s12.61140029-29.78501133 28.13698828-29.78501133h134.79626865c32.21685088 0 58.42444482 26.90097012 58.42444571 59.98202843v132.57545712c0 16.45008926-12.61140029 29.78501133-28.17718331 29.78501133z" p-id="5970"></path><path d="M785.78381357 962H651.65077373c-48.12429815 0-87.27490635-44.134875-87.27490634-98.3890169V711.52051572H466.77066612V863.6109831c0 54.26419043-39.19080411 98.3890169-87.28495489 98.3890169H245.36271992c-48.12429815 0-87.27490635-44.134875-87.27490722-98.3890169v-303.47751005c0-16.45008926 12.61140029-29.78501133 28.13698828-29.78501133s28.1369874 13.33492208 28.1369874 29.78501133v303.47751005c0 21.40420869 13.88761347 38.81899424 30.94063769 38.81899424h134.2335296c17.0831707 0 30.94063769-17.41478555 30.94063769-38.81899424V652.44289062l28.1369874-0.49239755h182.09655528V863.6109831c0 21.40420869 13.88761347 38.81899424 30.94063769 38.81899424h134.13303984c17.0831707 0 30.93058828-17.41478555 30.93058916-38.81899424v-303.47751005c0-16.45008926 12.60135088-29.78501133 28.1369874-29.78501133s28.1369874 13.33492208 28.13698829 29.78501133v303.47751005c0.06029385 54.2541419-39.08026582 98.3890169-87.20456485 98.3890169z" p-id="5971"></path></svg>