<?xml version="1.0" standalone="no"?><!DOCTYPE svg PUBLIC "-//W3C//DTD SVG 1.1//EN" "http://www.w3.org/Graphics/SVG/1.1/DTD/svg11.dtd"><svg t="1669007477392" class="icon" viewBox="0 0 1024 1024" version="1.1" xmlns="http://www.w3.org/2000/svg" p-id="11079" xmlns:xlink="http://www.w3.org/1999/xlink" width="200" height="200"><path d="M478.108099 181.854814l446.854281 0c0 0 4.296863 0 8.593725 0l4.296863 0c12.889565 0 21.48329 12.889565 21.48329 25.780153l0 0 0 597.238336c0 12.889565-8.593725 25.780153-21.48329 25.780153l-4.296863 0L478.108099 830.653457l0-51.560306 433.964716 0L912.072815 246.304685 478.108099 478.32504l0-55.857169 348.031555-189.053774L478.108099 233.414097 478.108099 181.854814zM91.406826 181.854814l386.701273 0 0 51.560306L130.076544 233.415121 314.834478 512.698918l163.27362-90.230024 0 55.857169-158.976758 85.933161c-12.889565 8.593725-25.780153 4.296863-34.373879-4.296863l-167.570483-253.503645 0 472.634434 360.921119 0 0 51.560306L91.406826 830.653457c-17.186428 0-25.780153-12.889565-25.780153-25.780153L65.626673 207.634967C65.626673 194.744379 74.219375 181.854814 91.406826 181.854814z" p-id="11080" fill="#023A84"></path></svg>