<?xml version="1.0" standalone="no"?><!DOCTYPE svg PUBLIC "-//W3C//DTD SVG 1.1//EN" "http://www.w3.org/Graphics/SVG/1.1/DTD/svg11.dtd"><svg t="1667291647589" class="icon" viewBox="0 0 1024 1024" version="1.1" xmlns="http://www.w3.org/2000/svg" p-id="2532" xmlns:xlink="http://www.w3.org/1999/xlink" width="200" height="200"><path d="M856.768 922.496c25.52-14.208 49.392-28.64 68.896-43.072 2.192-1.68 11.84-8.416 14.224-10.368 10.816-8.944 17.84-22.432 17.84-37.584 0-14.432-6.288-27.488-16.384-36.128L742.528 631.472c-8.192-6.704-18.768-10.8-30.336-10.8-13.008 0-24.816 5.024-33.504 13.2-3.376 3.376-33.232 33.968-33.232 33.968-20.704 20.752-54.208 20.752-74.912 0L367.664 464.752c-20.72-20.704-20.72-54.448 0-75.152l33.008-33.024c8.672-8.656 13.728-20.704 13.728-33.68 0-13.04-5.056-24.608-13.248-33.28L230.832 83.856c-8.912-10.624-22.4-17.584-37.344-17.584-15.888 0-29.856 7.696-38.784 19.504L151.792 89.616c-37.104 50.128-85.52 129.664-85.52 204.336 0 205.776 458.736 663.776 662.56 663.776 3.84 0 7.664-0.272 11.312-0.272C793.024 953.2 833.216 935.648 856.768 922.496z" p-id="2533" fill="#000000"></path></svg>